<svg viewBox="0 0 100 100" xmlns="http://www.w3.org/2000/svg">
	<symbol id="behance">
	<g clip-path="url(#clip0_179_212)">
		<path d="M34.2354 0.216797H5.87564C2.63578 0.216797 0 2.84528 0 6.07617V34.3574C0 37.5883 2.63578 40.2168 5.87564 40.2168H34.2354C37.4753 40.2168 40.111 37.5883 40.111 34.3574V6.07617C40.111 2.84528 37.4753 0.216797 34.2354 0.216797ZM37.7608 34.3574C37.7608 36.2959 36.1793 37.873 34.2354 37.873H5.87564C3.93178 37.873 2.35026 36.2959 2.35026 34.3574V6.07617C2.35026 4.1377 3.93178 2.56055 5.87564 2.56055H34.2354C36.1793 2.56055 37.7608 4.1377 37.7608 6.07617V34.3574Z" fill="black" stroke="black" stroke-width="0.5"/>
		<path d="M18.8804 16.7012C18.8804 14.1163 16.7719 12.0137 14.1799 12.0137H7.12915V28.4199H14.1799C16.7719 28.4199 18.8804 26.3173 18.8804 23.7324C18.8804 22.3335 18.262 21.0765 17.2839 20.2168C18.262 19.3571 18.8804 18.1001 18.8804 16.7012ZM16.5302 23.7324C16.5302 25.0248 15.4759 26.0762 14.1799 26.0762H9.47941V21.3887H14.1799C15.4759 21.3887 16.5302 22.44 16.5302 23.7324ZM9.47941 19.0449V14.3574H14.1799C15.4759 14.3574 16.5302 15.4088 16.5302 16.7012C16.5302 17.9936 15.4759 19.0449 14.1799 19.0449H9.47941Z" fill="black" stroke="black" stroke-width="0.5"/>
		<path d="M27.1064 16.7012C23.8665 16.7012 21.2307 19.3297 21.2307 22.5605C21.2307 25.7914 23.8665 28.4199 27.1064 28.4199C29.1974 28.4199 31.1474 27.2978 32.1952 25.4911L30.1608 24.3174C29.5316 25.4023 28.361 26.0762 27.1064 26.0762C25.5741 26.0762 24.2674 25.0966 23.7823 23.7324H32.982V22.5605C32.982 19.3297 30.3462 16.7012 27.1064 16.7012ZM23.7823 21.3887C24.2674 20.0245 25.5741 19.0449 27.1064 19.0449C28.6386 19.0449 29.9453 20.0245 30.4304 21.3887H23.7823Z" fill="black" stroke="black" stroke-width="0.5"/>
		<path d="M22.4058 12.0137H31.8068V14.3574H22.4058V12.0137Z" fill="black" stroke="black" stroke-width="0.5"/>
	</g>
	<defs>
	<clipPath id="clip0_179_212">
	<rect width="40.111" height="40" fill="white" transform="translate(0 0.216797)"/>
	</clipPath>
	</defs>
	</symbol>
	<symbol id="dribble">
	<path d="M19.554 0C8.781 0 0 8.98 0 19.999c0 11.019 8.78 19.999 19.554 19.999s19.554-8.98 19.554-19.999C39.108 8.98 30.328 0 19.554 0zm0 3.077c3.93 0 7.52 1.394 10.35 3.73-1.438 1.808-4.08 4.317-8.507 5.962-2.407-4.452-4.419-7.298-5.82-9.183a16.4 16.4 0 0 1 3.977-.51zm-6.957 1.586c1.176 1.548 3.3 4.462 5.829 9.019-6.496 1.74-12.362 1.856-14.807 1.779 1.307-4.808 4.616-8.74 8.978-10.798zm19.47 4.279a17.12 17.12 0 0 1 3.93 12.922c-.546-.077-.95-.144-1.646-.202a38.901 38.901 0 0 0-8.752.327 73.372 73.372 0 0 0-2.82-6.47c4.644-1.818 7.586-4.5 9.288-6.577zM19.855 16.47a73.96 73.96 0 0 1 2.726 6.135c-3.958 1.201-7.558 3.942-10.322 6.49a50.249 50.249 0 0 0-3.591 3.644 17.024 17.024 0 0 1-5.67-12.73c0-.51.039-.99.076-1.481 2.144.087 8.997.154 16.781-2.058zm9.956 8.173c2.312-.087 4.136.077 5.584.24a16.822 16.822 0 0 1-6.525 9.115c-.498-3.163-1.269-6.201-2.2-9.066a37.677 37.677 0 0 1 3.14-.289zm-6.149.846c1.072 3.163 1.918 6.538 2.398 10.077a16.347 16.347 0 0 1-6.515 1.355c-3.093 0-5.96-.875-8.433-2.365.837-.913 1.87-2.02 3.15-3.182 2.66-2.443 6.129-4.933 9.4-5.885z" fill="#090909"/>
	</symbol>
	<symbol id="instagram">
	<path d="M11.356.01C5.105.01 0 5.23 0 11.622v16.783c0 6.383 5.105 11.593 11.356 11.593h16.415c6.242 0 11.337-5.22 11.337-11.612V11.612C39.108 5.22 34.013 0 27.761 0H11.356v.01zm0 3.076h16.405c4.625 0 8.339 3.797 8.339 8.536v16.774c0 4.739-3.714 8.536-8.33 8.536H11.357c-4.634 0-8.348-3.797-8.348-8.517V11.63c.01-4.748 3.723-8.545 8.348-8.545zm20.24 3.076c-.836 0-1.503.682-1.503 1.538 0 .855.667 1.538 1.504 1.538S33.1 8.555 33.1 7.7c0-.856-.667-1.538-1.504-1.538zM19.565 9.238c-5.791 0-10.53 4.845-10.53 10.766s4.739 10.766 10.53 10.766c5.79 0 10.529-4.845 10.529-10.766 0-5.922-4.738-10.766-10.53-10.766zm0 3.076c4.174 0 7.52 3.422 7.52 7.69 0 4.268-3.346 7.69-7.52 7.69-4.175 0-7.521-3.422-7.521-7.69 0-4.268 3.347-7.69 7.52-7.69z" fill="#090909"/>
	</symbol>
	<symbol id="linkedin">
	<path d="M35.283.86h-28.4C3.64.86 1 3.491 1 6.726V35.05c0 3.236 2.64 5.869 5.884 5.869h28.399c3.244 0 5.884-2.633 5.884-5.869V6.727c0-3.235-2.64-5.868-5.884-5.868zm3.53 34.19a3.53 3.53 0 0 1-3.53 3.521h-28.4a3.53 3.53 0 0 1-3.53-3.52V6.726a3.53 3.53 0 0 1 3.53-3.52h28.4a3.53 3.53 0 0 1 3.53 3.52V35.05z" fill="#000" stroke="#000" stroke-width=".5"/><path d="M32.128 29.895h-4.312V22.694c0-.497-.036-.988-.161-1.473-.515-1.998-2.741-1.881-3.627-.934-.445.476-.735 1.014-.748 1.679-.003.158-.012.316-.012.474v7.454h-4.304V16.53h4.302v1.793l.034.015.092-.125c.432-.599.927-1.13 1.585-1.488.736-.402 1.53-.536 2.356-.512.895.026 1.745.227 2.51.709.98.617 1.579 1.52 1.929 2.604.273.844.362 1.716.363 2.598.002 2.538 0 5.077 0 7.616 0 .05-.004.1-.007.156zM16.334 29.903h-4.28V16.525h4.28v13.378zM14.377 9.873c1.348-.002 2.302.957 2.306 2.318.005 1.346-.964 2.3-2.338 2.3-1.34 0-2.297-.958-2.3-2.306-.002-1.348.968-2.31 2.332-2.312z" fill="#000"/>
	</symbol>
	<symbol id="menu">
	<path d="M5 8h22M5 16h22M27 24H5" stroke-width="3" stroke-linecap="round"/>
	</symbol>
	<symbol id="cross">
	<path d="M7 24L25 8M25 24L7 8" stroke-width="3" stroke-linecap="round"/>
	</symbol>
	<symbol id="ps">
	<path d="M3.713 3.78h81.665v80.854H3.713V3.779z" fill="url(#a)"/><path d="M3.713 3.78h81.665v80.854H3.713V3.779zM0 88.412h89.073V0H0v88.413zm60.066-52.128c-2.927 0-3.927 1.508-3.927 2.761 0 1.363.66 2.308 4.606 4.38 5.819 2.87 7.64 5.632 7.64 9.666 0 6.05-4.534 9.302-10.657 9.302-3.23 0-6.016-.672-7.604-1.617-.268-.109-.304-.309-.304-.6V54.6c0-.381.179-.49.447-.308a13.66 13.66 0 0 0 7.461 2.235c2.928 0 4.16-1.254 4.16-2.944 0-1.363-.858-2.562-4.606-4.542-5.266-2.562-7.462-5.16-7.462-9.521 0-4.87 3.749-8.921 10.246-8.921 3.196 0 5.427.49 6.64 1.053.304.182.376.491.376.763v5.179c0 .309-.179.49-.554.381-1.642-1.053-4.052-1.69-6.462-1.69zM28.15 40.773c.857.072 1.517.072 2.999.072 4.337 0 8.425-1.544 8.425-7.558 0-4.797-2.927-7.214-7.872-7.214a67.97 67.97 0 0 0-3.57.11l.018 14.59zm-6.622-20.06c0-.272.517-.454.82-.454 2.375-.109 5.91-.182 9.568-.182 10.282 0 14.299 5.742 14.299 13.064 0 9.594-6.837 13.718-15.227 13.718-1.41 0-1.892-.072-2.892-.072v14.499c0 .309-.107.454-.446.454h-5.676c-.304 0-.447-.109-.447-.454V20.713z" fill="#31C5F0"/><defs><radialGradient id="a" cx="0" cy="0" r="1" gradientUnits="userSpaceOnUse" gradientTransform="matrix(62.0565 0 0 61.1565 30.617 21.92)"><stop stop-color="#34364E" stop-opacity=".98"/><stop offset="1" stop-color="#0C0824"/></radialGradient></defs>
	</symbol>
	<symbol id="ai">
	<path d="M4.202 3.783h81.76v81.005H4.203V3.783z" fill="url(#a)"/><path d="M4.202 3.784h81.76v81.005H4.203V3.784zM.487 88.572h89.21V0H.486v88.572zm58.43-56.992c0-.31.108-.455.447-.455h5.842c.303 0 .446.11.446.455v29.87c0 .309-.071.454-.446.454h-5.77c-.375 0-.483-.182-.483-.49V31.58h-.035zm-.41-8.605c0-2.42 1.68-3.856 3.787-3.856 2.269 0 3.787 1.546 3.787 3.856 0 2.492-1.59 3.857-3.859 3.857-2.143.018-3.715-1.346-3.715-3.857zm-16.72 21.047c-1.036-4.202-3.501-13.352-4.43-17.79h-.072c-.786 4.42-2.75 11.915-4.305 17.79h8.807zm-10.325 6.13-2.93 11.352c-.071.31-.178.382-.553.382h-5.467c-.375 0-.446-.11-.375-.564l10.557-37.619c.179-.673.304-1.292.375-3.147 0-.273.108-.382.304-.382h7.806c.268 0 .376.073.447.382l11.826 40.839c.071.31 0 .491-.304.491h-6.163c-.304 0-.482-.073-.554-.346l-3.054-11.387H31.462z" fill="#FF7F18"/><defs><radialGradient id="a" cx="0" cy="0" r="1" gradientUnits="userSpaceOnUse" gradientTransform="matrix(62.1406 0 0 61.2673 31.157 21.96)"><stop stop-color="#423325" stop-opacity=".98"/><stop offset="1" stop-color="#1C0A00"/></radialGradient></defs>
	</symbol>
	<symbol id="ae">
	<path d="M4.202 3.783h81.76v81.005H4.203V3.783z" fill="url(#a)"/><path d="M4.202 3.784h81.76v81.005H4.203V3.784zM.487 88.572h89.21V0H.486v88.572zm63.111-45.878c1.894 0 2.572 0 2.751-.072 0-.273.071-.455.071-.637 0-2.037-.964-5.821-4.823-5.821-3.572 0-5.09 3.183-5.466 6.549h7.467v-.019zM56.06 47.88c.071 5.112 2.447 8.55 8.11 8.55 2.197 0 4.09-.31 6.055-1.165.268-.109.447-.072.447.273v4.73c0 .382-.107.564-.375.764-1.965.982-4.43 1.437-7.467 1.437-9.807 0-13.487-7.385-13.487-15.59 0-8.931 4.537-16.244 12.522-16.244 8.11 0 10.933 6.93 10.933 12.57 0 1.819-.108 3.292-.304 4.02-.072.31-.179.418-.482.491-.75.11-2.93.273-6.199.273h-9.736v-.11h-.017zm-19.936-3.857c-1.036-4.202-3.573-13.352-4.501-17.79h-.072c-.786 4.42-2.822 11.915-4.34 17.79h8.913zm-10.432 6.13-2.93 11.316c-.071.309-.178.418-.553.418h-5.484c-.376 0-.447-.11-.376-.564L26.907 23.74c.178-.673.303-1.218.375-3.11 0-.273.107-.382.303-.382h7.807c.268 0 .375.072.446.382l11.808 40.766c.072.31 0 .491-.304.491h-6.127c-.303 0-.482-.11-.554-.382l-3.054-11.351H25.692z" fill="#D8A1FF"/><defs><radialGradient id="a" cx="0" cy="0" r="1" gradientUnits="userSpaceOnUse" gradientTransform="matrix(62.1407 0 0 61.2673 31.155 21.944)"><stop stop-color="#442F55" stop-opacity=".98"/><stop offset="1" stop-color="#12002C"/></radialGradient></defs>
	</symbol>
	<symbol id="figma">
	<g clip-path="url(#a)"><path d="M15.046 88.991c8.038 0 14.558-6.64 14.558-14.826V59.34H15.046c-8.04 0-14.56 6.64-14.56 14.825 0 8.186 6.521 14.826 14.56 14.826z" fill="#0ACF83"/><path d="M.487 44.496c0-8.186 6.52-14.826 14.559-14.826h14.558v29.67H15.046C7.006 59.32.486 52.681.486 44.495z" fill="#A259FF"/><path d="M.487 14.826C.487 6.64 7.007 0 15.046 0h14.558v29.67H15.046c-8.04 0-14.56-6.658-14.56-14.844z" fill="#F24E1E"/><path d="M29.622 0H44.18c8.038 0 14.558 6.64 14.558 14.826S52.22 29.65 44.181 29.65H29.62V0z" fill="#FF7262"/><path d="M58.74 44.496c0 8.186-6.52 14.825-14.56 14.825-8.038 0-14.558-6.64-14.558-14.825 0-8.186 6.52-14.826 14.559-14.826 8.038 0 14.558 6.64 14.558 14.826z" fill="#1ABCFE"/></g><defs><clipPath id="a"><path fill="#fff" transform="translate(.487)" d="M0 0h58.252v88.991H0z"/></clipPath></defs>
	</symbol>
</svg>