<svg width="40" height="40" fill="none" xmlns="http://www.w3.org/2000/svg"><path d="M19.554 0C8.781 0 0 8.98 0 19.999c0 11.019 8.78 19.999 19.554 19.999s19.554-8.98 19.554-19.999C39.108 8.98 30.328 0 19.554 0zm0 3.077c3.93 0 7.52 1.394 10.35 3.73-1.438 1.808-4.08 4.317-8.507 5.962-2.407-4.452-4.419-7.298-5.82-9.183a16.4 16.4 0 0 1 3.977-.51zm-6.957 1.586c1.176 1.548 3.3 4.462 5.829 9.019-6.496 1.74-12.362 1.856-14.807 1.779 1.307-4.808 4.616-8.74 8.978-10.798zm19.47 4.279a17.12 17.12 0 0 1 3.93 12.922c-.546-.077-.95-.144-1.646-.202a38.901 38.901 0 0 0-8.752.327 73.372 73.372 0 0 0-2.82-6.47c4.644-1.818 7.586-4.5 9.288-6.577zM19.855 16.47a73.96 73.96 0 0 1 2.726 6.135c-3.958 1.201-7.558 3.942-10.322 6.49a50.249 50.249 0 0 0-3.591 3.644 17.024 17.024 0 0 1-5.67-12.73c0-.51.039-.99.076-1.481 2.144.087 8.997.154 16.781-2.058zm9.956 8.173c2.312-.087 4.136.077 5.584.24a16.822 16.822 0 0 1-6.525 9.115c-.498-3.163-1.269-6.201-2.2-9.066a37.677 37.677 0 0 1 3.14-.289zm-6.149.846c1.072 3.163 1.918 6.538 2.398 10.077a16.347 16.347 0 0 1-6.515 1.355c-3.093 0-5.96-.875-8.433-2.365.837-.913 1.87-2.02 3.15-3.182 2.66-2.443 6.129-4.933 9.4-5.885z" fill="#090909"/></svg>