<svg width="40" height="40" fill="none" xmlns="http://www.w3.org/2000/svg"><path d="M11.356.01C5.105.01 0 5.23 0 11.622v16.783c0 6.383 5.105 11.593 11.356 11.593h16.415c6.242 0 11.337-5.22 11.337-11.612V11.612C39.108 5.22 34.013 0 27.761 0H11.356v.01zm0 3.076h16.405c4.625 0 8.339 3.797 8.339 8.536v16.774c0 4.739-3.714 8.536-8.33 8.536H11.357c-4.634 0-8.348-3.797-8.348-8.517V11.63c.01-4.748 3.723-8.545 8.348-8.545zm20.24 3.076c-.836 0-1.503.682-1.503 1.538 0 .855.667 1.538 1.504 1.538S33.1 8.555 33.1 7.7c0-.856-.667-1.538-1.504-1.538zM19.565 9.238c-5.791 0-10.53 4.845-10.53 10.766s4.739 10.766 10.53 10.766c5.79 0 10.529-4.845 10.529-10.766 0-5.922-4.738-10.766-10.53-10.766zm0 3.076c4.174 0 7.52 3.422 7.52 7.69 0 4.268-3.346 7.69-7.52 7.69-4.175 0-7.521-3.422-7.521-7.69 0-4.268 3.347-7.69 7.52-7.69z" fill="#090909"/></svg>