<svg width="97" height="87" fill="none" xmlns="http://www.w3.org/2000/svg"><g clip-path="url(#a)" fill-rule="evenodd" clip-rule="evenodd"><path d="m19.993 31.223 28.394 55.575L.662 31.223h19.331zM76.789 31.223 48.395 86.798 96.12 31.223H76.789z" fill="#EA6C00"/><path d="M19.992 31.223H76.78L48.386 86.798 19.992 31.223z" fill="#FDAD00"/><path d="m48.386.424-26.9 2.843-1.494 27.957L48.386.424zM48.386.424l26.9 2.843 1.493 27.957L48.386.424z" fill="#FDD231"/><path d="M96.12 31.224 75.294 3.268l1.495 27.956h19.33zM.662 31.224 21.488 3.268l-1.495 27.956H.662z" fill="#FDAD00"/><path d="m48.386.424-28.394 30.8H76.78L48.386.424z" fill="#FEEEB7"/></g><defs><clipPath id="a"><path fill="#fff" transform="translate(.487)" d="M0 0h96v86.899H0z"/></clipPath></defs></svg>